<svg width="16" height="16" viewBox="0 0 16 16" fill="none" xmlns="http://www.w3.org/2000/svg">
<path d="M4.80338 2.07708C3.89466 2.07708 3.18066 2.59635 3.18066 3.24544C3.18066 3.89452 3.89466 4.41379 4.80338 4.41379C5.7121 4.41379 6.4261 3.89452 6.4261 3.24544C6.4261 2.59635 5.7121 2.07708 4.80338 2.07708ZM4.80338 3.76471C4.25166 3.76471 3.82975 3.47262 3.82975 3.24544C3.82975 2.9858 4.25166 2.72617 4.80338 2.72617C5.35511 2.72617 5.77701 3.01826 5.77701 3.24544C5.77701 3.50507 5.35511 3.76471 4.80338 3.76471Z" fill="black"/>
<path d="M13.8256 5.84179H9.60649V3.24544C9.60649 1.46045 7.4645 0 4.80325 0C2.14199 0 0 1.46045 0 3.24544V9.86613C0 11.3266 1.46045 12.6247 3.53753 13.0142V15.6755C3.53753 15.8702 3.66734 16 3.86207 16H13.8256C14.7343 16 15.4483 15.286 15.4483 14.3773V7.4645C15.4483 6.55578 14.7343 5.84179 13.8256 5.84179ZM4.80325 0.649087C7.1075 0.649087 8.9574 1.81744 8.9574 3.24544C8.9574 4.67343 7.1075 5.84179 4.80325 5.84179C2.49899 5.84179 0.649087 4.67343 0.649087 3.24544C0.649087 1.81744 2.49899 0.649087 4.80325 0.649087ZM8.9574 4.86815V5.84179H7.65923C8.1785 5.58215 8.63286 5.25761 8.9574 4.86815ZM3.53753 8.76268V12.3327C1.8499 11.9757 0.649087 11.002 0.649087 9.86613V4.86815C1.4929 5.84179 3.01826 6.49087 4.80325 6.49087H13.8256C14.3773 6.49087 14.7992 6.91278 14.7992 7.4645C14.7992 8.01623 14.3773 8.43813 13.8256 8.43813H3.86207C3.66734 8.43813 3.53753 8.56795 3.53753 8.76268ZM14.8641 14.3448H14.7992C14.7992 14.8966 14.3773 15.3185 13.8256 15.3185H13.4361V13.8256C13.4361 13.6308 13.3063 13.501 13.1116 13.501C12.9168 13.501 12.787 13.6308 12.787 13.8256V15.3185H11.5862V13.8256C11.5862 13.6308 11.4564 13.501 11.2617 13.501C11.0669 13.501 10.9371 13.6308 10.9371 13.8256V15.3185H9.73631V13.8256C9.73631 13.6308 9.60649 13.501 9.41176 13.501C9.21704 13.501 9.08722 13.6308 9.08722 13.8256V15.3185H7.88641V13.8256C7.88641 13.6308 7.75659 13.501 7.56187 13.501C7.36714 13.501 7.23732 13.6308 7.23732 13.8256V15.3185H6.03651V13.8256C6.03651 13.6308 5.90669 13.501 5.71197 13.501C5.51724 13.501 5.38742 13.6308 5.38742 13.8256V15.3185H4.25152V12.8195C4.25152 12.787 4.28398 12.7546 4.28398 12.7546C4.28398 12.6897 4.28398 12.6572 4.25152 12.5923V9.08722H13.8905C14.2475 9.08722 14.6045 8.9574 14.8641 8.76268V14.3448Z" fill="black"/>
</svg>
