     <svg width="86" height="86" viewBox="0 0 86 86" fill="none" xmlns="http://www.w3.org/2000/svg">
                      <path
                        d="M40.1693 1.83538C41.7319 0.270193 44.2681 0.270191 45.8307 1.83537L54.7078 10.727C55.4589 11.4793 56.4787 11.9017 57.5418 11.9009L70.1061 11.8906C72.3178 11.8888 74.1112 13.6822 74.1094 15.8939L74.0991 28.4582C74.0983 29.5213 74.5207 30.5411 75.273 31.2922L84.1646 40.1693C85.7298 41.7319 85.7298 44.2681 84.1646 45.8307L75.273 54.7078C74.5207 55.4589 74.0983 56.4787 74.0991 57.5418L74.1094 70.1061C74.1112 72.3178 72.3178 74.1112 70.1062 74.1094L57.5418 74.0991C56.4787 74.0983 55.4589 74.5207 54.7078 75.273L45.8307 84.1646C44.2681 85.7298 41.7319 85.7298 40.1693 84.1646L31.2922 75.273C30.5411 74.5207 29.5213 74.0983 28.4582 74.0991L15.8939 74.1094C13.6822 74.1112 11.8888 72.3178 11.8906 70.1062L11.9009 57.5418C11.9017 56.4787 11.4793 55.4589 10.727 54.7078L1.83538 45.8307C0.270193 44.2681 0.270191 41.7319 1.83537 40.1693L10.727 31.2922C11.4793 30.5411 11.9017 29.5213 11.9009 28.4582L11.8906 15.8939C11.8888 13.6822 13.6822 11.8888 15.8939 11.8906L28.4582 11.9009C29.5213 11.9017 30.5411 11.4793 31.2922 10.727L40.1693 1.83538Z"
                        fill="white"
                      />
                    </svg>